<svg width="557" height="140" viewBox="0 0 557 140" fill="none" xmlns="http://www.w3.org/2000/svg">
<path d="M319.291 47.3221C323.218 40.8989 328.978 35.9176 336.439 32.5094C343.77 29.1011 352.671 27.2659 362.882 27.2659C377.804 27.2659 389.455 31.0674 397.571 38.4082C405.686 45.8801 409.875 56.367 409.875 70C409.875 70.7481 409.858 71.4785 409.822 72.189C409.66 75.4665 406.772 77.7341 403.493 77.7341H344.839C340.453 77.7341 336.974 81.8625 339.313 85.5756C340.684 87.7523 342.475 89.541 344.686 90.9738C349.137 93.8577 355.158 95.2996 363.012 95.2996C368.51 95.2996 373.223 94.5131 377.15 92.9401C379.903 91.7992 382.381 90.2446 384.533 88.2262C386.1 86.7568 388.087 85.7303 390.234 85.7303H401.257C406.329 85.7303 409.711 90.951 406.707 95.0411C403.239 99.7645 398.906 103.608 393.643 106.573C385.266 111.423 375.055 113.783 363.012 113.783C347.042 113.783 334.738 110.112 326.229 102.509C317.59 94.9064 313.401 84.1573 313.401 70.1311C313.401 61.3483 315.364 53.7453 319.291 47.3221ZM379.02 62.0037C383.599 62.0037 387.093 57.5052 384.279 53.8896C383.071 52.3377 381.617 51.0194 379.899 49.9438C375.71 47.3221 370.081 46.0112 362.882 46.0112C352.592 46.0112 345.204 48.6585 340.763 53.9076C337.776 57.4372 341.209 62.0037 345.831 62.0037H379.02Z" fill="black"/>
<path d="M130.287 29.8876C134.189 29.8876 137.353 33.0533 137.353 36.9584V104.09C137.353 107.995 134.189 111.161 130.287 111.161H120.857C116.954 111.161 113.791 107.995 113.791 104.09V36.9584C113.791 33.0533 116.954 29.8876 120.857 29.8876H130.287Z" fill="black"/>
<path d="M175.281 29.8876C177.632 29.8876 179.538 31.795 179.538 34.1479V36.3327C179.538 37.479 180.467 38.4082 181.612 38.4082C182.354 38.4082 183.031 38.0069 183.442 37.3893C185.399 34.4484 188.211 32.0473 191.974 30.2809C196.163 28.3146 200.875 27.2659 206.111 27.2659C217.442 27.2659 226.164 30.8996 232.173 38.0612C233.023 39.0743 234.251 39.7191 235.573 39.7191C236.958 39.7191 238.231 39.0098 239.103 37.9339C241.62 34.8288 244.961 32.3127 249.047 30.5431C253.76 28.4457 259.257 27.2659 265.541 27.2659C276.929 27.2659 285.83 30.6742 292.114 37.2285C298.397 43.9139 301.539 53.221 301.539 65.2809V104.09C301.539 107.995 298.375 111.161 294.473 111.161H285.042C281.14 111.161 277.976 107.995 277.976 104.09V69.2135C277.976 62.1348 276.406 57.0225 273.526 53.7453C270.515 50.5993 265.802 48.8951 259.257 48.8951C252.712 48.8951 248 50.5993 244.989 53.8764C241.978 57.1536 240.538 62.2659 240.538 69.2135V104.09C240.538 107.995 237.375 111.161 233.472 111.161H224.042C220.14 111.161 216.976 107.995 216.976 104.09V69.2135C216.976 62.1348 215.405 57.0225 212.525 53.7453C209.515 50.5993 204.802 48.8951 198.257 48.8951C191.712 48.8951 187 50.5993 183.989 53.8764C180.978 57.1536 179.538 62.2659 179.538 69.2135V104.09C179.538 107.995 176.375 111.161 172.472 111.161H163.042C159.139 111.161 155.976 107.995 155.976 104.09V36.9584C155.976 33.0533 159.139 29.8876 163.042 29.8876H175.281Z" fill="black"/>
<path d="M443.192 0C447.095 0 450.259 3.16566 450.259 7.07071V104.09C450.259 107.995 447.095 111.161 443.192 111.161H433.762C429.86 111.161 426.696 107.995 426.696 104.09V7.07071C426.696 3.16567 429.86 0 433.762 0H443.192Z" fill="black"/>
<path d="M481.455 29.8876C484.32 29.8876 486.902 31.6194 487.991 34.2718L506.425 79.1787C508.885 85.1722 517.435 84.9734 519.614 78.872L535.436 34.5785C536.441 31.7653 539.105 29.8876 542.09 29.8876H549.928C554.832 29.8876 558.245 34.7652 556.568 39.377L527.687 118.764C522.189 132.921 512.241 140 497.58 140C488.809 140 481.871 137.903 476.897 133.446C473.543 130.441 471.022 126.482 469.415 121.57C468.096 117.539 471.468 113.783 475.708 113.783H484.347C487.14 113.783 489.466 115.601 491.31 117.7C491.719 118.164 492.149 118.563 492.605 118.895C494.045 119.944 495.878 120.468 498.234 120.468C502.292 120.468 505.434 117.584 507.79 111.816C509.063 108.312 506.469 104.607 502.742 104.607H496.805C493.946 104.607 491.369 102.883 490.276 100.239L465.23 39.6615C463.305 35.0063 466.725 29.8876 471.759 29.8876H481.455Z" fill="black"/>
<path d="M29.0818 104.476C22.7985 98.1835 19.6569 89.2697 19.6569 77.7341V15.9846C19.6569 12.0795 22.8205 8.91386 26.723 8.91386H36.1532C40.0556 8.91386 43.2192 12.0795 43.2192 15.9846V77.7341C43.2192 82.8464 44.2664 86.779 46.6227 89.4007C48.9789 92.0225 52.2515 93.3333 56.5712 93.3333C60.891 93.3333 64.4253 92.0225 67.3052 89.1386C69.1373 87.3872 70.5986 85.1053 71.7564 82.3266C73.0044 79.3315 75.7327 77.0787 78.9756 77.0787H86.9422C91.0914 77.0787 94.4053 80.6607 93.5012 84.7129C91.6846 92.8546 88.1685 99.3547 83.0134 104.213C76.2065 110.637 67.3052 113.783 56.1785 113.783C44.3973 113.783 35.3651 110.768 29.0818 104.476Z" fill="black"/>
<path d="M9.15458 56.078C5.29737 56.6939 1.67249 54.0614 1.0619 50.2009L0.0879266 44.0428C-0.525993 40.1612 2.14097 36.5235 6.02538 35.9441L85.3114 24.1181C89.2859 23.5252 92.9537 26.364 93.3794 30.3624L93.9531 35.7504C94.3514 39.4912 91.7528 42.889 88.0403 43.4818L9.15458 56.078Z" fill="black"/>
<path d="M137.207 11.7322C137.207 18.2117 131.961 23.4644 125.491 23.4644C119.021 23.4644 113.775 18.2117 113.775 11.7322C113.775 5.25269 119.021 0 125.491 0C131.961 0 137.207 5.25269 137.207 11.7322Z" fill="black"/>
</svg>
